<svg width="126" height="100" viewBox="0 0 126 100" fill="none" xmlns="http://www.w3.org/2000/svg">
<mask id="path-1-inside-1_100_15" fill="white">
<path fill-rule="evenodd" clip-rule="evenodd" d="M90.909 86.9951C82.0276 95.0748 70.2253 100 57.2727 100C29.6585 100 7.27271 77.6142 7.27271 50C7.27271 22.3858 29.6585 0 57.2727 0C70.2253 0 82.0276 4.92517 90.909 13.0049V5.45451H116.363V80H125.454V100L90.909 100V86.9951ZM58.1818 67.2727C68.2233 67.2727 76.3636 59.1325 76.3636 49.0909C76.3636 39.0494 68.2233 30.9091 58.1818 30.9091C48.1402 30.9091 40 39.0494 40 49.0909C40 59.1325 48.1402 67.2727 58.1818 67.2727Z"/>
</mask>
<path fill-rule="evenodd" clip-rule="evenodd" d="M90.909 86.9951C82.0276 95.0748 70.2253 100 57.2727 100C29.6585 100 7.27271 77.6142 7.27271 50C7.27271 22.3858 29.6585 0 57.2727 0C70.2253 0 82.0276 4.92517 90.909 13.0049V5.45451H116.363V80H125.454V100L90.909 100V86.9951ZM58.1818 67.2727C68.2233 67.2727 76.3636 59.1325 76.3636 49.0909C76.3636 39.0494 68.2233 30.9091 58.1818 30.9091C48.1402 30.9091 40 39.0494 40 49.0909C40 59.1325 48.1402 67.2727 58.1818 67.2727Z" fill="#C7AECB"/>
<path d="M90.909 86.9951H91.113V86.5335L90.7716 86.8441L90.909 86.9951ZM90.909 13.0049L90.7716 13.1559L91.113 13.4665V13.0049H90.909ZM90.909 5.45451V5.25043H90.7049V5.45451H90.909ZM116.363 5.45451H116.568V5.25043H116.363V5.45451ZM116.363 80H116.159V80.2041H116.363V80ZM125.454 80H125.658V79.7959H125.454V80ZM125.454 100L125.454 100.204L125.658 100.204V100H125.454ZM90.909 100H90.7049V100.204L90.909 100.204L90.909 100ZM57.2727 100.204C70.2781 100.204 82.1288 95.2586 91.0463 87.1461L90.7716 86.8441C81.9264 94.891 70.1726 99.7959 57.2727 99.7959V100.204ZM7.06862 50C7.06862 77.7269 29.5458 100.204 57.2727 100.204V99.7959C29.7712 99.7959 7.47679 77.5015 7.47679 50H7.06862ZM57.2727 -0.204082C29.5458 -0.204082 7.06862 22.2731 7.06862 50H7.47679C7.47679 22.4985 29.7712 0.204082 57.2727 0.204082V-0.204082ZM91.0463 12.8539C82.1288 4.74137 70.2781 -0.204082 57.2727 -0.204082V0.204082C70.1726 0.204082 81.9264 5.10897 90.7716 13.1559L91.0463 12.8539ZM90.7049 5.45451V13.0049H91.113V5.45451H90.7049ZM116.363 5.25043H90.909V5.65859H116.363V5.25043ZM116.568 80V5.45451H116.159V80H116.568ZM125.454 79.7959H116.363V80.2041H125.454V79.7959ZM125.658 100V80H125.25V100H125.658ZM90.909 100.204L125.454 100.204L125.454 99.7959L90.909 99.7959L90.909 100.204ZM90.7049 86.9951V100H91.113V86.9951H90.7049ZM76.1595 49.0909C76.1595 59.0198 68.1106 67.0687 58.1818 67.0687V67.4768C68.336 67.4768 76.5677 59.2452 76.5677 49.0909H76.1595ZM58.1818 31.1132C68.1106 31.1132 76.1595 39.1621 76.1595 49.0909H76.5677C76.5677 38.9367 68.336 30.705 58.1818 30.705V31.1132ZM40.204 49.0909C40.204 39.1621 48.2529 31.1132 58.1818 31.1132V30.705C48.0275 30.705 39.7959 38.9367 39.7959 49.0909H40.204ZM58.1818 67.0687C48.2529 67.0687 40.204 59.0198 40.204 49.0909H39.7959C39.7959 59.2452 48.0275 67.4768 58.1818 67.4768V67.0687Z" fill="#C7AECB" mask="url(#path-1-inside-1_100_15)"/>
<mask id="path-3-inside-2_100_15" fill="white">
<path fill-rule="evenodd" clip-rule="evenodd" d="M83.6363 86.995C74.755 95.0748 62.9527 100 50 100C22.3858 100 0 77.6142 0 50C0 22.3858 22.3858 0 50 0C62.9527 0 74.755 4.9252 83.6363 13.005V5.45451H109.091V80H118.182V100L83.6363 100V86.995ZM50.9091 67.2727C60.9506 67.2727 69.0909 59.1325 69.0909 49.0909C69.0909 39.0494 60.9506 30.9091 50.9091 30.9091C40.8675 30.9091 32.7273 39.0494 32.7273 49.0909C32.7273 59.1325 40.8675 67.2727 50.9091 67.2727Z"/>
</mask>
<path fill-rule="evenodd" clip-rule="evenodd" d="M83.6363 86.995C74.755 95.0748 62.9527 100 50 100C22.3858 100 0 77.6142 0 50C0 22.3858 22.3858 0 50 0C62.9527 0 74.755 4.9252 83.6363 13.005V5.45451H109.091V80H118.182V100L83.6363 100V86.995ZM50.9091 67.2727C60.9506 67.2727 69.0909 59.1325 69.0909 49.0909C69.0909 39.0494 60.9506 30.9091 50.9091 30.9091C40.8675 30.9091 32.7273 39.0494 32.7273 49.0909C32.7273 59.1325 40.8675 67.2727 50.9091 67.2727Z" fill="white"/>
<path d="M83.6363 86.995H83.8404V86.5334L83.499 86.8441L83.6363 86.995ZM83.6363 13.005L83.499 13.1559L83.8404 13.4665V13.005H83.6363ZM83.6363 5.45451V5.25043H83.4323V5.45451H83.6363ZM109.091 5.45451H109.295V5.25043H109.091V5.45451ZM109.091 80H108.887V80.2041H109.091V80ZM118.182 80H118.386V79.7959H118.182V80ZM118.182 100L118.182 100.204L118.386 100.204V100H118.182ZM83.6363 100H83.4323V100.204L83.6363 100.204L83.6363 100ZM50 100.204C63.0054 100.204 74.8562 95.2586 83.7737 87.146L83.499 86.8441C74.6538 94.891 62.8999 99.7959 50 99.7959V100.204ZM-0.204082 50C-0.204082 77.7269 22.2731 100.204 50 100.204V99.7959C22.4985 99.7959 0.204082 77.5015 0.204082 50H-0.204082ZM50 -0.204082C22.2731 -0.204082 -0.204082 22.2731 -0.204082 50H0.204082C0.204082 22.4985 22.4985 0.204082 50 0.204082V-0.204082ZM83.7737 12.854C74.8562 4.7414 63.0054 -0.204082 50 -0.204082V0.204082C62.8999 0.204082 74.6538 5.10901 83.499 13.1559L83.7737 12.854ZM83.4323 5.45451V13.005H83.8404V5.45451H83.4323ZM109.091 5.25043H83.6363V5.65859H109.091V5.25043ZM109.295 80V5.45451H108.887V80H109.295ZM118.182 79.7959H109.091V80.2041H118.182V79.7959ZM118.386 100V80H117.978V100H118.386ZM83.6363 100.204L118.182 100.204L118.182 99.7959L83.6363 99.7959L83.6363 100.204ZM83.4323 86.995V100H83.8404V86.995H83.4323ZM68.8868 49.0909C68.8868 59.0198 60.8379 67.0687 50.9091 67.0687V67.4768C61.0633 67.4768 69.295 59.2452 69.295 49.0909H68.8868ZM50.9091 31.1132C60.8379 31.1132 68.8868 39.1621 68.8868 49.0909H69.295C69.295 38.9367 61.0633 30.705 50.9091 30.705V31.1132ZM32.9313 49.0909C32.9313 39.1621 40.9802 31.1132 50.9091 31.1132V30.705C40.7548 30.705 32.5232 38.9367 32.5232 49.0909H32.9313ZM50.9091 67.0687C40.9802 67.0687 32.9313 59.0198 32.9313 49.0909H32.5232C32.5232 59.2452 40.7548 67.4768 50.9091 67.4768V67.0687Z" fill="#C7AECB" mask="url(#path-3-inside-2_100_15)"/>
</svg>
