<svg width="126" height="100" viewBox="0 0 126 100" fill="none" xmlns="http://www.w3.org/2000/svg">
<path fill-rule="evenodd" clip-rule="evenodd" d="M90.909 86.9951C82.0276 95.0748 70.2253 100 57.2727 100C29.6585 100 7.27271 77.6142 7.27271 50C7.27271 22.3858 29.6585 0 57.2727 0C70.2253 0 82.0276 4.92517 90.909 13.0049V5.45451H116.363V80H125.454V100L90.909 100V86.9951ZM58.1818 67.2727C68.2233 67.2727 76.3636 59.1325 76.3636 49.0909C76.3636 39.0494 68.2233 30.9091 58.1818 30.9091C48.1402 30.9091 40 39.0494 40 49.0909C40 59.1325 48.1402 67.2727 58.1818 67.2727Z" fill="#675582"/>
<mask id="path-2-inside-1_100_28" fill="white">
<path fill-rule="evenodd" clip-rule="evenodd" d="M83.6363 86.995C74.755 95.0748 62.9527 100 50 100C22.3858 100 0 77.6142 0 50C0 22.3858 22.3858 0 50 0C62.9527 0 74.755 4.9252 83.6363 13.005V5.45451H109.091V80H118.182V100L83.6363 100V86.995ZM50.9091 67.2727C60.9506 67.2727 69.0909 59.1325 69.0909 49.0909C69.0909 39.0494 60.9506 30.9091 50.9091 30.9091C40.8675 30.9091 32.7273 39.0494 32.7273 49.0909C32.7273 59.1325 40.8675 67.2727 50.9091 67.2727Z"/>
</mask>
<path fill-rule="evenodd" clip-rule="evenodd" d="M83.6363 86.995C74.755 95.0748 62.9527 100 50 100C22.3858 100 0 77.6142 0 50C0 22.3858 22.3858 0 50 0C62.9527 0 74.755 4.9252 83.6363 13.005V5.45451H109.091V80H118.182V100L83.6363 100V86.995ZM50.9091 67.2727C60.9506 67.2727 69.0909 59.1325 69.0909 49.0909C69.0909 39.0494 60.9506 30.9091 50.9091 30.9091C40.8675 30.9091 32.7273 39.0494 32.7273 49.0909C32.7273 59.1325 40.8675 67.2727 50.9091 67.2727Z" fill="white"/>
<path d="M83.6363 86.995H83.8404V86.5334L83.499 86.8441L83.6363 86.995ZM83.6363 13.005L83.499 13.1559L83.8404 13.4665V13.005H83.6363ZM83.6363 5.45451V5.25043H83.4323V5.45451H83.6363ZM109.091 5.45451H109.295V5.25043H109.091V5.45451ZM109.091 80H108.887V80.2041H109.091V80ZM118.182 80H118.386V79.7959H118.182V80ZM118.182 100L118.182 100.204L118.386 100.204V100H118.182ZM83.6363 100H83.4323V100.204L83.6363 100.204L83.6363 100ZM50 100.204C63.0054 100.204 74.8562 95.2586 83.7737 87.146L83.499 86.8441C74.6538 94.891 62.8999 99.7959 50 99.7959V100.204ZM-0.204082 50C-0.204082 77.7269 22.2731 100.204 50 100.204V99.7959C22.4985 99.7959 0.204082 77.5015 0.204082 50H-0.204082ZM50 -0.204082C22.2731 -0.204082 -0.204082 22.2731 -0.204082 50H0.204082C0.204082 22.4985 22.4985 0.204082 50 0.204082V-0.204082ZM83.7737 12.854C74.8562 4.7414 63.0054 -0.204082 50 -0.204082V0.204082C62.8999 0.204082 74.6538 5.10901 83.499 13.1559L83.7737 12.854ZM83.4323 5.45451V13.005H83.8404V5.45451H83.4323ZM109.091 5.25043H83.6363V5.65859H109.091V5.25043ZM109.295 80V5.45451H108.887V80H109.295ZM118.182 79.7959H109.091V80.2041H118.182V79.7959ZM118.386 100V80H117.978V100H118.386ZM83.6363 100.204L118.182 100.204L118.182 99.7959L83.6363 99.7959L83.6363 100.204ZM83.4323 86.995V100H83.8404V86.995H83.4323ZM68.8868 49.0909C68.8868 59.0198 60.8379 67.0687 50.9091 67.0687V67.4768C61.0633 67.4768 69.295 59.2452 69.295 49.0909H68.8868ZM50.9091 31.1132C60.8379 31.1132 68.8868 39.1621 68.8868 49.0909H69.295C69.295 38.9367 61.0633 30.705 50.9091 30.705V31.1132ZM32.9313 49.0909C32.9313 39.1621 40.9802 31.1132 50.9091 31.1132V30.705C40.7548 30.705 32.5232 38.9367 32.5232 49.0909H32.9313ZM50.9091 67.0687C40.9802 67.0687 32.9313 59.0198 32.9313 49.0909H32.5232C32.5232 59.2452 40.7548 67.4768 50.9091 67.4768V67.0687Z" fill="#675582" mask="url(#path-2-inside-1_100_28)"/>
</svg>
